<svg width="37" height="37" viewBox="0 0 37 37" fill="none" xmlns="http://www.w3.org/2000/svg">
<path d="M15.1866 16.9933C15.501 16.7656 15.6527 16.3898 15.6527 15.8731C15.6636 15.6274 15.613 15.3854 15.5046 15.1649C15.407 14.9879 15.2625 14.8397 15.0854 14.735C14.9019 14.6236 14.698 14.5499 14.4856 14.5182C14.2544 14.4748 14.0195 14.4531 13.7883 14.4567H11.2481V17.3365H13.9979C14.4712 17.3401 14.8723 17.2245 15.1866 16.9933V16.9933ZM15.613 19.5948C15.2589 19.3238 14.7855 19.1901 14.1966 19.1901H11.2409V22.5866H14.1388C14.4098 22.5866 14.6591 22.5613 14.9012 22.5107C15.1302 22.466 15.3486 22.3776 15.5443 22.2506C15.7286 22.1313 15.8768 21.9688 15.9888 21.7592C16.0972 21.5496 16.1514 21.2822 16.1514 20.9606C16.1514 20.3211 15.9707 19.8694 15.613 19.5948V19.5948ZM18.5 2.3125C9.56074 2.3125 2.3125 9.56074 2.3125 18.5C2.3125 27.4393 9.56074 34.6875 18.5 34.6875C27.4393 34.6875 34.6875 27.4393 34.6875 18.5C34.6875 9.56074 27.4393 2.3125 18.5 2.3125ZM21.6255 12.679H26.6263V13.8967H21.6255V12.679ZM18.5 22.7203C18.2661 23.1643 17.9321 23.5478 17.5244 23.8404C17.098 24.1367 16.6247 24.3535 16.1225 24.48C15.597 24.6208 15.0549 24.6901 14.5109 24.6859H8.52734V12.361H14.3447C14.9337 12.361 15.4685 12.4152 15.9563 12.5164C16.4404 12.6176 16.8523 12.791 17.1992 13.0259C17.5425 13.2607 17.8135 13.5751 18.005 13.9653C18.1929 14.352 18.2904 14.8361 18.2904 15.4106C18.2904 16.0321 18.1495 16.5452 17.8677 16.9607C17.5822 17.3763 17.1703 17.7123 16.6103 17.9761C17.3727 18.1929 17.9327 18.5795 18.3013 19.1215C18.6771 19.6707 18.8613 20.3283 18.8613 21.1016C18.8613 21.7303 18.7421 22.2687 18.5 22.7203ZM28.5738 20.8125H22.1277C22.1277 21.5135 22.3698 22.1855 22.7348 22.5469C23.1033 22.9046 23.6309 23.0853 24.321 23.0853C24.8196 23.0853 25.2424 22.9588 25.6037 22.7095C25.9614 22.4602 26.1782 22.1964 26.2577 21.9218H28.4185C28.0716 22.9949 27.544 23.7609 26.8286 24.2234C26.1204 24.6859 25.2532 24.9172 24.2451 24.9172C23.5405 24.9172 22.9082 24.8016 22.3409 24.5812C21.7953 24.368 21.3039 24.0428 20.8992 23.6236C20.5002 23.1932 20.1918 22.6869 19.9923 22.135C19.7719 21.5243 19.6635 20.8812 19.6707 20.2344C19.6707 19.5659 19.7827 18.9444 19.9995 18.3663C20.415 17.2426 21.2786 16.3429 22.3807 15.8768C22.9696 15.6311 23.602 15.5082 24.2415 15.5154C25.0003 15.5154 25.6579 15.66 26.2288 15.9563C26.7784 16.2392 27.2556 16.6447 27.6235 17.1414C27.9885 17.6364 28.245 18.2001 28.4076 18.836C28.563 19.4611 28.6172 20.1187 28.5738 20.8125V20.8125ZM24.1656 17.3582C23.7754 17.3582 23.4466 17.4269 23.1937 17.5605C22.9407 17.6942 22.7312 17.8604 22.5722 18.052C22.4208 18.2369 22.3089 18.4508 22.2434 18.6807C22.1855 18.8722 22.1458 19.0673 22.1313 19.266H26.124C26.0662 18.6409 25.8494 18.1784 25.5604 17.8532C25.2568 17.5316 24.769 17.3582 24.1656 17.3582V17.3582Z" fill="black"/>
</svg>
