<svg width="68" height="115" viewBox="0 0 68 115" fill="none" xmlns="http://www.w3.org/2000/svg">
<g clip-path="url(#clip0_1_247)">
<path d="M16.632 114.918C25.2534 114.918 32.2504 106.399 32.2504 95.902V76.8857H16.632C8.0107 76.8857 1.01367 85.405 1.01367 95.902C1.01367 106.399 8.0107 114.918 16.632 114.918Z" fill="#0ACF83"/>
<path d="M1.01367 57.8695C1.01367 47.3726 8.0107 38.8533 16.632 38.8533H32.2504V76.8858H16.632C8.0107 76.8858 1.01367 68.3665 1.01367 57.8695Z" fill="#A259FF"/>
<path d="M1.01367 19.8371C1.01367 9.34008 8.0107 0.820801 16.632 0.820801H32.2504V38.8533H16.632C8.0107 38.8533 1.01367 30.334 1.01367 19.8371Z" fill="#F24E1E"/>
<path d="M36.5215 0.820801H52.1398C60.7612 0.820801 67.7582 9.34008 67.7582 19.8371C67.7582 30.334 60.7612 38.8533 52.1398 38.8533H36.5215V0.820801Z" fill="#FF7262"/>
<path d="M67.7582 57.8695C67.7582 68.3665 60.7612 76.8858 52.1398 76.8858C43.5185 76.8858 36.5215 68.3665 36.5215 57.8695C36.5215 47.3726 43.5185 38.8533 52.1398 38.8533C60.7612 38.8533 67.7582 47.3726 67.7582 57.8695Z" fill="#1ABCFE"/>
</g>
<defs>
<clipPath id="clip0_1_247">
<rect width="66.7857" height="114.167" fill="white" transform="translate(0.875 0.820801)"/>
</clipPath>
</defs>
</svg>
