<svg width="1512" height="982" viewBox="0 0 1512 982" fill="none" xmlns="http://www.w3.org/2000/svg">
<g clip-path="url(#clip0_372_7506)">
<rect width="1512" height="982" fill="#3897D7"/>
<ellipse cx="756" cy="425.5" rx="267" ry="266.5" fill="#F05454"/>
<g style="mix-blend-mode:multiply" opacity="0.6">
<rect x="362" y="218" width="521.316" height="384.675"/>
</g>
<rect x="415.063" y="239.468" width="444.489" height="338.903"/>
<g style="mix-blend-mode:screen">
<rect x="581.139" y="318.591" width="278.414" height="259.241"/>
</g>
<mask id="mask0_372_7506" style="mask-type:alpha" maskUnits="userSpaceOnUse" x="426" y="244" width="424" height="310">
<path d="M575.041 553.733C569.436 553.667 564.931 552.831 560.702 550.914C557.431 549.43 554.207 547.807 551.088 546.025C532.338 535.313 513.624 524.538 494.9 513.78C477.191 503.605 459.479 493.435 441.783 483.235C439.213 481.754 436.7 480.166 434.212 478.549C432.397 477.369 430.764 475.947 429.363 474.281C425.795 470.04 425.341 465.319 428.054 460.511C429.079 458.696 430.353 457.051 431.885 455.65C434.209 453.527 436.545 451.407 439 449.44C470.397 424.285 501.815 399.156 533.229 374.023C582.353 334.72 631.475 295.416 680.609 256.125C683.067 254.159 685.559 252.223 688.15 250.438C693.978 246.424 700.476 244.656 707.546 245.027C711.17 245.217 714.675 246.013 718.062 247.283C723.633 249.373 728.869 252.191 734.196 254.81C734.357 254.889 734.508 254.989 734.659 255.087C736.098 256.026 736.189 256.819 734.995 258.119C734.387 258.782 733.697 259.38 733.158 260.092C731.527 262.245 731.601 264.482 733.419 266.465C734.077 267.183 734.899 267.778 735.723 268.31C736.626 268.894 737.605 269.365 738.572 269.843C759.139 280.004 779.708 290.161 800.282 300.307C801.572 300.943 802.864 301.618 804.225 302.057C809.391 303.723 814.333 303.432 818.854 300.107C819.288 299.787 819.726 299.465 820.194 299.199C821.258 298.594 822.38 298.386 823.562 298.849C824.231 299.112 824.921 299.334 825.563 299.651C829.434 301.564 833.327 303.437 837.144 305.453C839.205 306.542 841.169 307.832 843.103 309.14C844.675 310.203 846.009 311.555 847.087 313.134C849.436 316.575 849.758 320.177 847.645 323.799C846.703 325.415 845.518 326.931 844.235 328.295C842.574 330.061 840.745 331.676 838.918 333.276C821.038 348.926 803.143 364.559 785.253 380.198C738.63 420.952 692.007 461.707 645.384 502.461C630.814 515.197 616.255 527.945 601.662 540.654C599.085 542.898 596.435 545.071 593.697 547.113C589.681 550.108 585.207 552.194 580.247 553.083C578.216 553.446 576.147 553.599 575.041 553.733Z" fill="white"/>
</mask>
<g mask="url(#mask0_372_7506)">
<rect x="413.67" y="238.233" width="445.883" height="324.345"/>
<path fill-rule="evenodd" clip-rule="evenodd" d="M702.426 238.233L859.553 315.68L577.787 562.578L413.67 468.305L702.426 238.233Z"/>
</g>
<g style="mix-blend-mode:screen" opacity="0.3">
<rect x="419.249" y="240.549" width="438.143" height="319.46"/>
</g>
<g style="mix-blend-mode:multiply" opacity="0.6">
<g style="mix-blend-mode:multiply">
<rect x="531.857" y="290.101" width="598.143" height="345.519"/>
</g>
</g>
<g style="mix-blend-mode:multiply" opacity="0.6">
<rect x="542.658" y="291.721" width="304.878" height="230.751"/>
</g>
<rect x="599.772" y="283.755" width="505.924" height="301.772"/>
<mask id="mask1_372_7506" style="mask-type:alpha" maskUnits="userSpaceOnUse" x="612" y="289" width="484" height="273">
<path d="M1025.28 561.217C1020.49 561.09 1016.66 560.568 1012.95 559.4C1008.75 558.076 1004.55 556.718 1000.42 555.203C888.199 514.087 775.988 472.95 663.777 431.815C653.391 428.008 642.994 424.233 632.632 420.365C629.604 419.235 626.635 417.922 623.714 416.534C620.939 415.216 618.41 413.483 616.298 411.212C614.227 408.986 612.785 406.454 612.424 403.368C612.21 401.544 612.433 399.782 612.939 398.038C613.546 395.945 614.517 394.014 615.693 392.2C617.748 389.029 619.87 385.902 621.967 382.759C622.117 382.535 622.29 382.327 622.45 382.109C623.535 380.634 624.983 380.154 626.731 380.599C628.125 380.954 629.491 381.427 630.894 381.737C633.566 382.328 636.24 382.342 638.904 381.604C641.333 380.93 643.323 379.627 644.829 377.606C645.42 376.813 645.98 375.996 646.532 375.175C657.313 359.113 668.092 343.05 678.863 326.982C679.564 325.937 680.255 324.878 680.849 323.771C682.092 321.453 681.732 319.257 680.163 317.217C679.037 315.754 677.531 314.781 675.887 314.007C674.83 313.509 673.725 313.104 672.698 312.553C671.274 311.788 670.942 310.808 671.832 309.438C674.673 305.064 677.384 300.583 681.022 296.794C684.651 293.013 689.179 290.995 694.318 290.223C699.68 289.417 704.933 290.071 710.052 291.624C715.384 293.241 720.662 295.05 725.918 296.904C840.065 337.165 954.207 377.442 1068.34 417.733C1072.16 419.08 1075.93 420.556 1079.67 422.083C1082.43 423.206 1085.02 424.672 1087.41 426.463C1089.36 427.931 1091.1 429.619 1092.48 431.646C1094.97 435.28 1095.59 439.239 1094.56 443.49C1093.87 446.308 1092.65 448.916 1091.42 451.517C1086.3 462.328 1081.16 473.132 1076.03 483.939C1066.67 503.686 1057.32 523.442 1047.91 543.172C1046.52 546.089 1045.04 548.989 1043.32 551.717C1040.4 556.34 1036.14 559.234 1030.79 560.382C1028.69 560.832 1026.53 561.033 1025.28 561.217Z" fill="white"/>
</mask>
<g mask="url(#mask1_372_7506)">
<rect x="601.777" y="282.819" width="501.232" height="286.394"/>
<path fill-rule="evenodd" clip-rule="evenodd" d="M601.777 410.337L689.166 282.819L1103.01 428.63L1036.17 569.213L601.777 410.337Z"/>
</g>
<path d="M412.299 612.176C417.963 612.176 422.331 612.8 425.403 614.048C428.475 615.2 431.115 616.448 433.323 617.792C434.475 618.464 435.387 618.992 436.059 619.376C436.827 619.664 437.547 619.808 438.219 619.808C439.179 619.808 439.851 619.28 440.235 618.224C440.715 617.168 441.099 615.584 441.387 613.472H444.699C444.603 615.296 444.459 617.504 444.267 620.096C444.171 622.592 444.075 625.904 443.979 630.032C443.979 634.16 443.979 639.584 443.979 646.304H440.667C440.283 641.312 439.131 636.464 437.211 631.76C435.291 627.056 432.555 623.216 429.003 620.24C425.547 617.168 421.275 615.632 416.187 615.632C411.579 615.632 407.787 616.928 404.811 619.52C401.835 622.112 400.347 625.712 400.347 630.32C400.347 634.16 401.307 637.472 403.227 640.256C405.147 642.944 407.931 645.584 411.579 648.176C415.323 650.768 419.835 653.888 425.115 657.536C429.723 660.512 433.851 663.488 437.499 666.464C441.147 669.44 444.075 672.8 446.283 676.544C448.491 680.288 449.595 684.752 449.595 689.936C449.595 696.272 447.915 701.504 444.555 705.632C441.291 709.76 436.971 712.88 431.595 714.992C426.219 717.008 420.315 718.016 413.883 718.016C407.931 718.016 403.179 717.44 399.627 716.288C396.075 715.136 393.099 713.936 390.699 712.688C388.587 711.344 386.955 710.672 385.803 710.672C384.843 710.672 384.123 711.2 383.643 712.256C383.259 713.312 382.923 714.896 382.635 717.008H379.323C379.515 714.704 379.611 712.016 379.611 708.944C379.707 705.872 379.755 701.888 379.755 696.992C379.851 692 379.899 685.712 379.899 678.128H383.211C383.595 684.464 384.651 690.416 386.379 695.984C388.203 701.456 390.939 705.872 394.587 709.232C398.331 712.592 403.275 714.272 409.419 714.272C412.779 714.272 415.755 713.696 418.347 712.544C421.035 711.296 423.195 709.472 424.827 707.072C426.459 704.672 427.275 701.696 427.275 698.144C427.275 694.112 426.315 690.608 424.395 687.632C422.571 684.656 420.027 681.872 416.763 679.28C413.595 676.688 409.899 674.048 405.675 671.36C401.163 668.384 396.939 665.408 393.003 662.432C389.067 659.456 385.899 656.048 383.499 652.208C381.195 648.368 380.043 643.808 380.043 638.528C380.043 632.48 381.531 627.536 384.507 623.696C387.579 619.76 391.563 616.88 396.459 615.056C401.451 613.136 406.731 612.176 412.299 612.176ZM493.313 641.552V644.576C491.201 644.576 489.329 644.72 487.697 645.008C486.161 645.2 485.105 645.872 484.529 647.024C484.049 648.176 484.241 650.048 485.105 652.64L498.785 695.408L496.913 697.424L513.761 641.408L516.641 642.704L494.609 716.288C493.073 716.192 491.537 716.144 490.001 716.144C488.465 716.144 486.881 716.192 485.249 716.288L462.497 652.64C461.153 648.8 459.665 646.496 458.033 645.728C456.497 644.96 455.201 644.576 454.145 644.576V641.552C457.217 641.84 460.385 642.08 463.649 642.272C467.009 642.368 470.657 642.416 474.593 642.416C477.569 642.416 480.689 642.32 483.953 642.128C487.313 641.936 490.433 641.744 493.313 641.552ZM568.481 641.552V644.432C566.657 644.912 564.929 646.016 563.297 647.744C561.665 649.472 560.129 652.496 558.689 656.816L539.537 716.288C538.001 716.192 536.417 716.144 534.785 716.144C533.249 716.144 531.713 716.192 530.177 716.288L509.873 660.848L513.761 641.408C515.489 641.504 517.217 641.552 518.945 641.552C520.769 641.456 522.545 641.408 524.273 641.408L544.001 699.584L542.417 698L552.065 667.472C553.697 662.192 554.321 657.92 553.937 654.656C553.553 651.392 552.401 648.944 550.481 647.312C548.561 645.68 545.969 644.72 542.705 644.432V641.552C544.241 641.648 545.873 641.744 547.601 641.84C549.425 641.84 551.201 641.888 552.929 641.984C554.753 641.984 556.289 641.984 557.537 641.984C559.457 641.984 561.425 641.936 563.441 641.84C565.553 641.744 567.233 641.648 568.481 641.552ZM607.496 639.536C615.944 639.536 622.568 642.032 627.368 647.024C632.168 652.016 634.568 660.176 634.568 671.504H587.192L586.904 668.768H616.424C616.52 664.064 616.232 659.744 615.56 655.808C614.888 651.776 613.832 648.56 612.392 646.16C610.952 643.76 609.032 642.56 606.632 642.56C603.272 642.56 600.392 644.672 597.992 648.896C595.688 653.12 594.296 660.128 593.816 669.92L594.248 670.784C594.152 671.936 594.056 673.136 593.96 674.384C593.96 675.632 593.96 676.928 593.96 678.272C593.96 684.896 594.872 690.272 596.696 694.4C598.616 698.528 601.016 701.552 603.896 703.472C606.776 705.296 609.704 706.208 612.68 706.208C614.696 706.208 616.76 705.92 618.872 705.344C621.08 704.672 623.288 703.52 625.496 701.888C627.704 700.16 629.768 697.76 631.688 694.688L634.28 695.552C633.128 699.2 631.304 702.752 628.808 706.208C626.312 709.664 623.144 712.496 619.304 714.704C615.464 716.912 610.856 718.016 605.48 718.016C598.952 718.016 593.192 716.624 588.2 713.84C583.208 711.056 579.272 706.832 576.392 701.168C573.608 695.504 572.216 688.304 572.216 679.568C572.216 670.64 573.704 663.2 576.68 657.248C579.752 651.296 583.928 646.88 589.208 644C594.584 641.024 600.68 639.536 607.496 639.536ZM663.278 717.008C658.958 717.008 655.358 716.192 652.478 714.56C649.598 712.928 647.486 710.768 646.142 708.08C644.798 705.296 644.126 702.272 644.126 699.008C644.126 694.88 645.038 691.52 646.862 688.928C648.782 686.336 651.23 684.224 654.206 682.592C657.182 680.96 660.302 679.616 663.566 678.56C666.926 677.504 670.094 676.496 673.07 675.536C676.142 674.48 678.59 673.28 680.414 671.936C682.334 670.496 683.294 668.672 683.294 666.464V655.232C683.294 652.736 682.862 650.528 681.998 648.608C681.23 646.592 679.982 645.056 678.254 644C676.622 642.944 674.462 642.416 671.774 642.416C669.854 642.416 667.934 642.704 666.014 643.28C664.094 643.76 662.51 644.624 661.262 645.872C663.95 646.832 666.014 648.32 667.454 650.336C668.99 652.256 669.758 654.464 669.758 656.96C669.758 660.224 668.606 662.816 666.302 664.736C664.094 666.656 661.454 667.616 658.382 667.616C654.926 667.616 652.286 666.56 650.462 664.448C648.734 662.24 647.87 659.6 647.87 656.528C647.87 653.744 648.542 651.44 649.886 649.616C651.326 647.792 653.294 646.064 655.79 644.432C658.478 642.896 661.694 641.696 665.438 640.832C669.278 639.968 673.406 639.536 677.822 639.536C682.238 639.536 686.222 640.016 689.774 640.976C693.326 641.84 696.302 643.472 698.702 645.872C700.91 648.08 702.35 650.816 703.022 654.08C703.694 657.248 704.03 661.28 704.03 666.176V705.344C704.03 707.744 704.27 709.424 704.75 710.384C705.23 711.248 706.046 711.68 707.198 711.68C708.062 711.68 708.878 711.44 709.646 710.96C710.51 710.48 711.422 709.904 712.382 709.232L713.822 711.68C711.806 713.408 709.454 714.752 706.766 715.712C704.174 716.576 701.246 717.008 697.982 717.008C694.43 717.008 691.598 716.528 689.486 715.568C687.374 714.512 685.838 713.12 684.878 711.392C684.014 709.664 683.582 707.648 683.582 705.344C681.278 708.992 678.494 711.872 675.23 713.984C671.966 716 667.982 717.008 663.278 717.008ZM673.502 707.792C675.422 707.792 677.15 707.36 678.686 706.496C680.318 705.536 681.854 704 683.294 701.888V672.368C682.43 673.808 681.23 675.104 679.694 676.256C678.158 677.408 676.526 678.608 674.798 679.856C673.07 681.008 671.39 682.304 669.758 683.744C668.222 685.184 666.974 686.96 666.014 689.072C665.054 691.184 664.574 693.728 664.574 696.704C664.574 700.448 665.39 703.232 667.022 705.056C668.654 706.88 670.814 707.792 673.502 707.792ZM747.669 617.936V641.552H764.661V644.432H747.669V702.608C747.669 705.488 748.197 707.552 749.253 708.8C750.309 709.952 751.893 710.528 754.005 710.528C755.733 710.528 757.461 709.904 759.189 708.656C760.917 707.312 762.453 705.056 763.797 701.888L766.245 703.184C764.709 707.504 762.357 711.056 759.189 713.84C756.117 716.624 751.893 718.016 746.517 718.016C743.349 718.016 740.565 717.584 738.165 716.72C735.765 715.952 733.749 714.752 732.117 713.12C730.005 711.008 728.613 708.416 727.941 705.344C727.269 702.176 726.933 698.096 726.933 693.104V644.432H714.837V641.552H726.933V622.544C730.965 622.544 734.661 622.208 738.021 621.536C741.477 620.768 744.693 619.568 747.669 617.936ZM846.598 613.76L881.59 703.904C882.934 707.36 884.422 709.76 886.054 711.104C887.782 712.352 889.318 713.024 890.662 713.12V716C887.782 715.808 884.374 715.712 880.438 715.712C876.598 715.616 872.71 715.568 868.774 715.568C864.358 715.568 860.182 715.616 856.246 715.712C852.31 715.712 849.19 715.808 846.886 716V713.12C851.782 712.928 854.854 712.112 856.102 710.672C857.446 709.136 857.158 705.92 855.238 701.024L830.758 634.064L833.35 630.32L811.462 687.344C809.35 692.624 808.054 696.944 807.574 700.304C807.19 703.664 807.43 706.256 808.294 708.08C809.254 709.904 810.742 711.2 812.758 711.968C814.87 712.64 817.366 713.024 820.246 713.12V716C817.078 715.808 814.054 715.712 811.174 715.712C808.294 715.616 805.366 715.568 802.39 715.568C800.278 715.568 798.262 715.616 796.342 715.712C794.518 715.712 792.886 715.808 791.446 716V713.12C793.462 712.736 795.526 711.44 797.638 709.232C799.75 707.024 801.814 703.28 803.83 698L836.662 613.76C838.198 613.856 839.83 613.904 841.558 613.904C843.382 613.904 845.062 613.856 846.598 613.76ZM856.678 674.528V677.408H813.766L815.206 674.528H856.678ZM943.145 639.536C946.217 639.536 948.713 640.208 950.633 641.552C952.553 642.8 953.945 644.432 954.809 646.448C955.769 648.464 956.249 650.576 956.249 652.784C956.249 656.336 955.193 659.264 953.081 661.568C951.065 663.776 948.377 664.88 945.017 664.88C941.657 664.88 939.017 664.064 937.097 662.432C935.273 660.704 934.361 658.448 934.361 655.664C934.361 652.976 934.937 650.768 936.089 649.04C937.337 647.216 938.873 645.68 940.697 644.432C939.353 644.048 938.009 644.096 936.665 644.576C934.841 644.864 933.113 645.632 931.481 646.88C929.849 648.032 928.457 649.52 927.305 651.344C926.153 653.072 925.241 654.992 924.569 657.104C923.897 659.12 923.561 661.088 923.561 663.008V701.168C923.561 705.776 924.665 708.896 926.873 710.528C929.177 712.16 932.585 712.976 937.097 712.976V716C934.889 715.904 931.673 715.808 927.449 715.712C923.225 715.52 918.809 715.424 914.201 715.424C910.361 715.424 906.473 715.52 902.537 715.712C898.601 715.808 895.625 715.904 893.609 716V712.976C896.969 712.976 899.321 712.256 900.665 710.816C902.105 709.376 902.825 706.64 902.825 702.608V657.248C902.825 652.928 902.153 649.76 900.809 647.744C899.561 645.632 897.161 644.576 893.609 644.576V641.552C896.681 641.84 899.657 641.984 902.537 641.984C906.569 641.984 910.313 641.84 913.769 641.552C917.321 641.168 920.585 640.64 923.561 639.968V653.36C924.713 650.768 926.249 648.416 928.169 646.304C930.089 644.192 932.297 642.56 934.793 641.408C937.289 640.16 940.073 639.536 943.145 639.536ZM996.511 639.536C1004.96 639.536 1011.58 642.032 1016.38 647.024C1021.18 652.016 1023.58 660.176 1023.58 671.504H976.207L975.919 668.768H1005.44C1005.54 664.064 1005.25 659.744 1004.58 655.808C1003.9 651.776 1002.85 648.56 1001.41 646.16C999.967 643.76 998.047 642.56 995.647 642.56C992.287 642.56 989.407 644.672 987.007 648.896C984.703 653.12 983.311 660.128 982.831 669.92L983.263 670.784C983.167 671.936 983.071 673.136 982.975 674.384C982.975 675.632 982.975 676.928 982.975 678.272C982.975 684.896 983.887 690.272 985.711 694.4C987.631 698.528 990.031 701.552 992.911 703.472C995.791 705.296 998.719 706.208 1001.7 706.208C1003.71 706.208 1005.78 705.92 1007.89 705.344C1010.1 704.672 1012.3 703.52 1014.51 701.888C1016.72 700.16 1018.78 697.76 1020.7 694.688L1023.3 695.552C1022.14 699.2 1020.32 702.752 1017.82 706.208C1015.33 709.664 1012.16 712.496 1008.32 714.704C1004.48 716.912 999.871 718.016 994.495 718.016C987.967 718.016 982.207 716.624 977.215 713.84C972.223 711.056 968.287 706.832 965.407 701.168C962.623 695.504 961.231 688.304 961.231 679.568C961.231 670.64 962.719 663.2 965.695 657.248C968.767 651.296 972.943 646.88 978.223 644C983.599 641.024 989.695 639.536 996.511 639.536ZM1085.15 639.536C1089.18 639.536 1092.44 640.064 1094.94 641.12C1097.53 642.08 1099.55 643.424 1100.99 645.152C1102.52 646.976 1103.63 649.328 1104.3 652.208C1105.07 655.088 1105.45 658.976 1105.45 663.872V702.608C1105.45 706.64 1106.12 709.376 1107.47 710.816C1108.91 712.256 1111.31 712.976 1114.67 712.976V716C1112.84 715.904 1110.11 715.808 1106.46 715.712C1102.81 715.52 1099.21 715.424 1095.66 715.424C1092.01 715.424 1088.41 715.52 1084.86 715.712C1081.4 715.808 1078.76 715.904 1076.94 716V712.976C1079.82 712.976 1081.83 712.256 1082.99 710.816C1084.14 709.376 1084.71 706.64 1084.71 702.608V657.824C1084.71 655.424 1084.47 653.36 1083.99 651.632C1083.51 649.808 1082.65 648.416 1081.4 647.456C1080.15 646.4 1078.28 645.872 1075.79 645.872C1073.19 645.872 1070.79 646.592 1068.59 648.032C1066.47 649.472 1064.75 651.488 1063.4 654.08C1062.15 656.576 1061.53 659.408 1061.53 662.576V702.608C1061.53 706.64 1062.11 709.376 1063.26 710.816C1064.51 712.256 1066.52 712.976 1069.31 712.976V716C1067.58 715.904 1065.03 715.808 1061.67 715.712C1058.41 715.52 1055 715.424 1051.45 715.424C1047.8 715.424 1044.06 715.52 1040.22 715.712C1036.38 715.808 1033.5 715.904 1031.58 716V712.976C1034.94 712.976 1037.29 712.256 1038.63 710.816C1040.07 709.376 1040.79 706.64 1040.79 702.608V657.248C1040.79 652.928 1040.12 649.76 1038.78 647.744C1037.53 645.632 1035.13 644.576 1031.58 644.576V641.552C1034.65 641.84 1037.63 641.984 1040.51 641.984C1044.54 641.984 1048.28 641.84 1051.74 641.552C1055.29 641.168 1058.55 640.64 1061.53 639.968V652.928C1063.93 648.032 1067.19 644.576 1071.32 642.56C1075.45 640.544 1080.06 639.536 1085.15 639.536ZM1140.4 717.008C1136.08 717.008 1132.48 716.192 1129.6 714.56C1126.72 712.928 1124.61 710.768 1123.27 708.08C1121.92 705.296 1121.25 702.272 1121.25 699.008C1121.25 694.88 1122.16 691.52 1123.99 688.928C1125.91 686.336 1128.36 684.224 1131.33 682.592C1134.31 680.96 1137.43 679.616 1140.69 678.56C1144.05 677.504 1147.22 676.496 1150.2 675.536C1153.27 674.48 1155.72 673.28 1157.54 671.936C1159.46 670.496 1160.42 668.672 1160.42 666.464V655.232C1160.42 652.736 1159.99 650.528 1159.12 648.608C1158.36 646.592 1157.11 645.056 1155.38 644C1153.75 642.944 1151.59 642.416 1148.9 642.416C1146.98 642.416 1145.06 642.704 1143.14 643.28C1141.22 643.76 1139.64 644.624 1138.39 645.872C1141.08 646.832 1143.14 648.32 1144.58 650.336C1146.12 652.256 1146.88 654.464 1146.88 656.96C1146.88 660.224 1145.73 662.816 1143.43 664.736C1141.22 666.656 1138.58 667.616 1135.51 667.616C1132.05 667.616 1129.41 666.56 1127.59 664.448C1125.86 662.24 1125 659.6 1125 656.528C1125 653.744 1125.67 651.44 1127.01 649.616C1128.45 647.792 1130.42 646.064 1132.92 644.432C1135.6 642.896 1138.82 641.696 1142.56 640.832C1146.4 639.968 1150.53 639.536 1154.95 639.536C1159.36 639.536 1163.35 640.016 1166.9 640.976C1170.45 641.84 1173.43 643.472 1175.83 645.872C1178.04 648.08 1179.48 650.816 1180.15 654.08C1180.82 657.248 1181.16 661.28 1181.16 666.176V705.344C1181.16 707.744 1181.4 709.424 1181.88 710.384C1182.36 711.248 1183.17 711.68 1184.32 711.68C1185.19 711.68 1186 711.44 1186.77 710.96C1187.64 710.48 1188.55 709.904 1189.51 709.232L1190.95 711.68C1188.93 713.408 1186.58 714.752 1183.89 715.712C1181.3 716.576 1178.37 717.008 1175.11 717.008C1171.56 717.008 1168.72 716.528 1166.61 715.568C1164.5 714.512 1162.96 713.12 1162 711.392C1161.14 709.664 1160.71 707.648 1160.71 705.344C1158.4 708.992 1155.62 711.872 1152.36 713.984C1149.09 716 1145.11 717.008 1140.4 717.008ZM1150.63 707.792C1152.55 707.792 1154.28 707.36 1155.81 706.496C1157.44 705.536 1158.98 704 1160.42 701.888V672.368C1159.56 673.808 1158.36 675.104 1156.82 676.256C1155.28 677.408 1153.65 678.608 1151.92 679.856C1150.2 681.008 1148.52 682.304 1146.88 683.744C1145.35 685.184 1144.1 686.96 1143.14 689.072C1142.18 691.184 1141.7 693.728 1141.7 696.704C1141.7 700.448 1142.52 703.232 1144.15 705.056C1145.78 706.88 1147.94 707.792 1150.63 707.792Z" fill="#757575"/>
<path d="M400.299 601.176C405.963 601.176 410.331 601.8 413.403 603.048C416.475 604.2 419.115 605.448 421.323 606.792C422.475 607.464 423.387 607.992 424.059 608.376C424.827 608.664 425.547 608.808 426.219 608.808C427.179 608.808 427.851 608.28 428.235 607.224C428.715 606.168 429.099 604.584 429.387 602.472H432.699C432.603 604.296 432.459 606.504 432.267 609.096C432.171 611.592 432.075 614.904 431.979 619.032C431.979 623.16 431.979 628.584 431.979 635.304H428.667C428.283 630.312 427.131 625.464 425.211 620.76C423.291 616.056 420.555 612.216 417.003 609.24C413.547 606.168 409.275 604.632 404.187 604.632C399.579 604.632 395.787 605.928 392.811 608.52C389.835 611.112 388.347 614.712 388.347 619.32C388.347 623.16 389.307 626.472 391.227 629.256C393.147 631.944 395.931 634.584 399.579 637.176C403.323 639.768 407.835 642.888 413.115 646.536C417.723 649.512 421.851 652.488 425.499 655.464C429.147 658.44 432.075 661.8 434.283 665.544C436.491 669.288 437.595 673.752 437.595 678.936C437.595 685.272 435.915 690.504 432.555 694.632C429.291 698.76 424.971 701.88 419.595 703.992C414.219 706.008 408.315 707.016 401.883 707.016C395.931 707.016 391.179 706.44 387.627 705.288C384.075 704.136 381.099 702.936 378.699 701.688C376.587 700.344 374.955 699.672 373.803 699.672C372.843 699.672 372.123 700.2 371.643 701.256C371.259 702.312 370.923 703.896 370.635 706.008H367.323C367.515 703.704 367.611 701.016 367.611 697.944C367.707 694.872 367.755 690.888 367.755 685.992C367.851 681 367.899 674.712 367.899 667.128H371.211C371.595 673.464 372.651 679.416 374.379 684.984C376.203 690.456 378.939 694.872 382.587 698.232C386.331 701.592 391.275 703.272 397.419 703.272C400.779 703.272 403.755 702.696 406.347 701.544C409.035 700.296 411.195 698.472 412.827 696.072C414.459 693.672 415.275 690.696 415.275 687.144C415.275 683.112 414.315 679.608 412.395 676.632C410.571 673.656 408.027 670.872 404.763 668.28C401.595 665.688 397.899 663.048 393.675 660.36C389.163 657.384 384.939 654.408 381.003 651.432C377.067 648.456 373.899 645.048 371.499 641.208C369.195 637.368 368.043 632.808 368.043 627.528C368.043 621.48 369.531 616.536 372.507 612.696C375.579 608.76 379.563 605.88 384.459 604.056C389.451 602.136 394.731 601.176 400.299 601.176ZM481.313 630.552V633.576C479.201 633.576 477.329 633.72 475.697 634.008C474.161 634.2 473.105 634.872 472.529 636.024C472.049 637.176 472.241 639.048 473.105 641.64L486.785 684.408L484.913 686.424L501.761 630.408L504.641 631.704L482.609 705.288C481.073 705.192 479.537 705.144 478.001 705.144C476.465 705.144 474.881 705.192 473.249 705.288L450.497 641.64C449.153 637.8 447.665 635.496 446.033 634.728C444.497 633.96 443.201 633.576 442.145 633.576V630.552C445.217 630.84 448.385 631.08 451.649 631.272C455.009 631.368 458.657 631.416 462.593 631.416C465.569 631.416 468.689 631.32 471.953 631.128C475.313 630.936 478.433 630.744 481.313 630.552ZM556.481 630.552V633.432C554.657 633.912 552.929 635.016 551.297 636.744C549.665 638.472 548.129 641.496 546.689 645.816L527.537 705.288C526.001 705.192 524.417 705.144 522.785 705.144C521.249 705.144 519.713 705.192 518.177 705.288L497.873 649.848L501.761 630.408C503.489 630.504 505.217 630.552 506.945 630.552C508.769 630.456 510.545 630.408 512.273 630.408L532.001 688.584L530.417 687L540.065 656.472C541.697 651.192 542.321 646.92 541.937 643.656C541.553 640.392 540.401 637.944 538.481 636.312C536.561 634.68 533.969 633.72 530.705 633.432V630.552C532.241 630.648 533.873 630.744 535.601 630.84C537.425 630.84 539.201 630.888 540.929 630.984C542.753 630.984 544.289 630.984 545.537 630.984C547.457 630.984 549.425 630.936 551.441 630.84C553.553 630.744 555.233 630.648 556.481 630.552ZM595.496 628.536C603.944 628.536 610.568 631.032 615.368 636.024C620.168 641.016 622.568 649.176 622.568 660.504H575.192L574.904 657.768H604.424C604.52 653.064 604.232 648.744 603.56 644.808C602.888 640.776 601.832 637.56 600.392 635.16C598.952 632.76 597.032 631.56 594.632 631.56C591.272 631.56 588.392 633.672 585.992 637.896C583.688 642.12 582.296 649.128 581.816 658.92L582.248 659.784C582.152 660.936 582.056 662.136 581.96 663.384C581.96 664.632 581.96 665.928 581.96 667.272C581.96 673.896 582.872 679.272 584.696 683.4C586.616 687.528 589.016 690.552 591.896 692.472C594.776 694.296 597.704 695.208 600.68 695.208C602.696 695.208 604.76 694.92 606.872 694.344C609.08 693.672 611.288 692.52 613.496 690.888C615.704 689.16 617.768 686.76 619.688 683.688L622.28 684.552C621.128 688.2 619.304 691.752 616.808 695.208C614.312 698.664 611.144 701.496 607.304 703.704C603.464 705.912 598.856 707.016 593.48 707.016C586.952 707.016 581.192 705.624 576.2 702.84C571.208 700.056 567.272 695.832 564.392 690.168C561.608 684.504 560.216 677.304 560.216 668.568C560.216 659.64 561.704 652.2 564.68 646.248C567.752 640.296 571.928 635.88 577.208 633C582.584 630.024 588.68 628.536 595.496 628.536ZM651.278 706.008C646.958 706.008 643.358 705.192 640.478 703.56C637.598 701.928 635.486 699.768 634.142 697.08C632.798 694.296 632.126 691.272 632.126 688.008C632.126 683.88 633.038 680.52 634.862 677.928C636.782 675.336 639.23 673.224 642.206 671.592C645.182 669.96 648.302 668.616 651.566 667.56C654.926 666.504 658.094 665.496 661.07 664.536C664.142 663.48 666.59 662.28 668.414 660.936C670.334 659.496 671.294 657.672 671.294 655.464V644.232C671.294 641.736 670.862 639.528 669.998 637.608C669.23 635.592 667.982 634.056 666.254 633C664.622 631.944 662.462 631.416 659.774 631.416C657.854 631.416 655.934 631.704 654.014 632.28C652.094 632.76 650.51 633.624 649.262 634.872C651.95 635.832 654.014 637.32 655.454 639.336C656.99 641.256 657.758 643.464 657.758 645.96C657.758 649.224 656.606 651.816 654.302 653.736C652.094 655.656 649.454 656.616 646.382 656.616C642.926 656.616 640.286 655.56 638.462 653.448C636.734 651.24 635.87 648.6 635.87 645.528C635.87 642.744 636.542 640.44 637.886 638.616C639.326 636.792 641.294 635.064 643.79 633.432C646.478 631.896 649.694 630.696 653.438 629.832C657.278 628.968 661.406 628.536 665.822 628.536C670.238 628.536 674.222 629.016 677.774 629.976C681.326 630.84 684.302 632.472 686.702 634.872C688.91 637.08 690.35 639.816 691.022 643.08C691.694 646.248 692.03 650.28 692.03 655.176V694.344C692.03 696.744 692.27 698.424 692.75 699.384C693.23 700.248 694.046 700.68 695.198 700.68C696.062 700.68 696.878 700.44 697.646 699.96C698.51 699.48 699.422 698.904 700.382 698.232L701.822 700.68C699.806 702.408 697.454 703.752 694.766 704.712C692.174 705.576 689.246 706.008 685.982 706.008C682.43 706.008 679.598 705.528 677.486 704.568C675.374 703.512 673.838 702.12 672.878 700.392C672.014 698.664 671.582 696.648 671.582 694.344C669.278 697.992 666.494 700.872 663.23 702.984C659.966 705 655.982 706.008 651.278 706.008ZM661.502 696.792C663.422 696.792 665.15 696.36 666.686 695.496C668.318 694.536 669.854 693 671.294 690.888V661.368C670.43 662.808 669.23 664.104 667.694 665.256C666.158 666.408 664.526 667.608 662.798 668.856C661.07 670.008 659.39 671.304 657.758 672.744C656.222 674.184 654.974 675.96 654.014 678.072C653.054 680.184 652.574 682.728 652.574 685.704C652.574 689.448 653.39 692.232 655.022 694.056C656.654 695.88 658.814 696.792 661.502 696.792ZM735.669 606.936V630.552H752.661V633.432H735.669V691.608C735.669 694.488 736.197 696.552 737.253 697.8C738.309 698.952 739.893 699.528 742.005 699.528C743.733 699.528 745.461 698.904 747.189 697.656C748.917 696.312 750.453 694.056 751.797 690.888L754.245 692.184C752.709 696.504 750.357 700.056 747.189 702.84C744.117 705.624 739.893 707.016 734.517 707.016C731.349 707.016 728.565 706.584 726.165 705.72C723.765 704.952 721.749 703.752 720.117 702.12C718.005 700.008 716.613 697.416 715.941 694.344C715.269 691.176 714.933 687.096 714.933 682.104V633.432H702.837V630.552H714.933V611.544C718.965 611.544 722.661 611.208 726.021 610.536C729.477 609.768 732.693 608.568 735.669 606.936ZM834.598 602.76L869.59 692.904C870.934 696.36 872.422 698.76 874.054 700.104C875.782 701.352 877.318 702.024 878.662 702.12V705C875.782 704.808 872.374 704.712 868.438 704.712C864.598 704.616 860.71 704.568 856.774 704.568C852.358 704.568 848.182 704.616 844.246 704.712C840.31 704.712 837.19 704.808 834.886 705V702.12C839.782 701.928 842.854 701.112 844.102 699.672C845.446 698.136 845.158 694.92 843.238 690.024L818.758 623.064L821.35 619.32L799.462 676.344C797.35 681.624 796.054 685.944 795.574 689.304C795.19 692.664 795.43 695.256 796.294 697.08C797.254 698.904 798.742 700.2 800.758 700.968C802.87 701.64 805.366 702.024 808.246 702.12V705C805.078 704.808 802.054 704.712 799.174 704.712C796.294 704.616 793.366 704.568 790.39 704.568C788.278 704.568 786.262 704.616 784.342 704.712C782.518 704.712 780.886 704.808 779.446 705V702.12C781.462 701.736 783.526 700.44 785.638 698.232C787.75 696.024 789.814 692.28 791.83 687L824.662 602.76C826.198 602.856 827.83 602.904 829.558 602.904C831.382 602.904 833.062 602.856 834.598 602.76ZM844.678 663.528V666.408H801.766L803.206 663.528H844.678ZM931.145 628.536C934.217 628.536 936.713 629.208 938.633 630.552C940.553 631.8 941.945 633.432 942.809 635.448C943.769 637.464 944.249 639.576 944.249 641.784C944.249 645.336 943.193 648.264 941.081 650.568C939.065 652.776 936.377 653.88 933.017 653.88C929.657 653.88 927.017 653.064 925.097 651.432C923.273 649.704 922.361 647.448 922.361 644.664C922.361 641.976 922.937 639.768 924.089 638.04C925.337 636.216 926.873 634.68 928.697 633.432C927.353 633.048 926.009 633.096 924.665 633.576C922.841 633.864 921.113 634.632 919.481 635.88C917.849 637.032 916.457 638.52 915.305 640.344C914.153 642.072 913.241 643.992 912.569 646.104C911.897 648.12 911.561 650.088 911.561 652.008V690.168C911.561 694.776 912.665 697.896 914.873 699.528C917.177 701.16 920.585 701.976 925.097 701.976V705C922.889 704.904 919.673 704.808 915.449 704.712C911.225 704.52 906.809 704.424 902.201 704.424C898.361 704.424 894.473 704.52 890.537 704.712C886.601 704.808 883.625 704.904 881.609 705V701.976C884.969 701.976 887.321 701.256 888.665 699.816C890.105 698.376 890.825 695.64 890.825 691.608V646.248C890.825 641.928 890.153 638.76 888.809 636.744C887.561 634.632 885.161 633.576 881.609 633.576V630.552C884.681 630.84 887.657 630.984 890.537 630.984C894.569 630.984 898.313 630.84 901.769 630.552C905.321 630.168 908.585 629.64 911.561 628.968V642.36C912.713 639.768 914.249 637.416 916.169 635.304C918.089 633.192 920.297 631.56 922.793 630.408C925.289 629.16 928.073 628.536 931.145 628.536ZM984.511 628.536C992.959 628.536 999.583 631.032 1004.38 636.024C1009.18 641.016 1011.58 649.176 1011.58 660.504H964.207L963.919 657.768H993.439C993.535 653.064 993.247 648.744 992.575 644.808C991.903 640.776 990.847 637.56 989.407 635.16C987.967 632.76 986.047 631.56 983.647 631.56C980.287 631.56 977.407 633.672 975.007 637.896C972.703 642.12 971.311 649.128 970.831 658.92L971.263 659.784C971.167 660.936 971.071 662.136 970.975 663.384C970.975 664.632 970.975 665.928 970.975 667.272C970.975 673.896 971.887 679.272 973.711 683.4C975.631 687.528 978.031 690.552 980.911 692.472C983.791 694.296 986.719 695.208 989.695 695.208C991.711 695.208 993.775 694.92 995.887 694.344C998.095 693.672 1000.3 692.52 1002.51 690.888C1004.72 689.16 1006.78 686.76 1008.7 683.688L1011.3 684.552C1010.14 688.2 1008.32 691.752 1005.82 695.208C1003.33 698.664 1000.16 701.496 996.319 703.704C992.479 705.912 987.871 707.016 982.495 707.016C975.967 707.016 970.207 705.624 965.215 702.84C960.223 700.056 956.287 695.832 953.407 690.168C950.623 684.504 949.231 677.304 949.231 668.568C949.231 659.64 950.719 652.2 953.695 646.248C956.767 640.296 960.943 635.88 966.223 633C971.599 630.024 977.695 628.536 984.511 628.536ZM1073.15 628.536C1077.18 628.536 1080.44 629.064 1082.94 630.12C1085.53 631.08 1087.55 632.424 1088.99 634.152C1090.52 635.976 1091.63 638.328 1092.3 641.208C1093.07 644.088 1093.45 647.976 1093.45 652.872V691.608C1093.45 695.64 1094.12 698.376 1095.47 699.816C1096.91 701.256 1099.31 701.976 1102.67 701.976V705C1100.84 704.904 1098.11 704.808 1094.46 704.712C1090.81 704.52 1087.21 704.424 1083.66 704.424C1080.01 704.424 1076.41 704.52 1072.86 704.712C1069.4 704.808 1066.76 704.904 1064.94 705V701.976C1067.82 701.976 1069.83 701.256 1070.99 699.816C1072.14 698.376 1072.71 695.64 1072.71 691.608V646.824C1072.71 644.424 1072.47 642.36 1071.99 640.632C1071.51 638.808 1070.65 637.416 1069.4 636.456C1068.15 635.4 1066.28 634.872 1063.79 634.872C1061.19 634.872 1058.79 635.592 1056.59 637.032C1054.47 638.472 1052.75 640.488 1051.4 643.08C1050.15 645.576 1049.53 648.408 1049.53 651.576V691.608C1049.53 695.64 1050.11 698.376 1051.26 699.816C1052.51 701.256 1054.52 701.976 1057.31 701.976V705C1055.58 704.904 1053.03 704.808 1049.67 704.712C1046.41 704.52 1043 704.424 1039.45 704.424C1035.8 704.424 1032.06 704.52 1028.22 704.712C1024.38 704.808 1021.5 704.904 1019.58 705V701.976C1022.94 701.976 1025.29 701.256 1026.63 699.816C1028.07 698.376 1028.79 695.64 1028.79 691.608V646.248C1028.79 641.928 1028.12 638.76 1026.78 636.744C1025.53 634.632 1023.13 633.576 1019.58 633.576V630.552C1022.65 630.84 1025.63 630.984 1028.51 630.984C1032.54 630.984 1036.28 630.84 1039.74 630.552C1043.29 630.168 1046.55 629.64 1049.53 628.968V641.928C1051.93 637.032 1055.19 633.576 1059.32 631.56C1063.45 629.544 1068.06 628.536 1073.15 628.536ZM1128.4 706.008C1124.08 706.008 1120.48 705.192 1117.6 703.56C1114.72 701.928 1112.61 699.768 1111.27 697.08C1109.92 694.296 1109.25 691.272 1109.25 688.008C1109.25 683.88 1110.16 680.52 1111.99 677.928C1113.91 675.336 1116.36 673.224 1119.33 671.592C1122.31 669.96 1125.43 668.616 1128.69 667.56C1132.05 666.504 1135.22 665.496 1138.2 664.536C1141.27 663.48 1143.72 662.28 1145.54 660.936C1147.46 659.496 1148.42 657.672 1148.42 655.464V644.232C1148.42 641.736 1147.99 639.528 1147.12 637.608C1146.36 635.592 1145.11 634.056 1143.38 633C1141.75 631.944 1139.59 631.416 1136.9 631.416C1134.98 631.416 1133.06 631.704 1131.14 632.28C1129.22 632.76 1127.64 633.624 1126.39 634.872C1129.08 635.832 1131.14 637.32 1132.58 639.336C1134.12 641.256 1134.88 643.464 1134.88 645.96C1134.88 649.224 1133.73 651.816 1131.43 653.736C1129.22 655.656 1126.58 656.616 1123.51 656.616C1120.05 656.616 1117.41 655.56 1115.59 653.448C1113.86 651.24 1113 648.6 1113 645.528C1113 642.744 1113.67 640.44 1115.01 638.616C1116.45 636.792 1118.42 635.064 1120.92 633.432C1123.6 631.896 1126.82 630.696 1130.56 629.832C1134.4 628.968 1138.53 628.536 1142.95 628.536C1147.36 628.536 1151.35 629.016 1154.9 629.976C1158.45 630.84 1161.43 632.472 1163.83 634.872C1166.04 637.08 1167.48 639.816 1168.15 643.08C1168.82 646.248 1169.16 650.28 1169.16 655.176V694.344C1169.16 696.744 1169.4 698.424 1169.88 699.384C1170.36 700.248 1171.17 700.68 1172.32 700.68C1173.19 700.68 1174 700.44 1174.77 699.96C1175.64 699.48 1176.55 698.904 1177.51 698.232L1178.95 700.68C1176.93 702.408 1174.58 703.752 1171.89 704.712C1169.3 705.576 1166.37 706.008 1163.11 706.008C1159.56 706.008 1156.72 705.528 1154.61 704.568C1152.5 703.512 1150.96 702.12 1150 700.392C1149.14 698.664 1148.71 696.648 1148.71 694.344C1146.4 697.992 1143.62 700.872 1140.36 702.984C1137.09 705 1133.11 706.008 1128.4 706.008ZM1138.63 696.792C1140.55 696.792 1142.28 696.36 1143.81 695.496C1145.44 694.536 1146.98 693 1148.42 690.888V661.368C1147.56 662.808 1146.36 664.104 1144.82 665.256C1143.28 666.408 1141.65 667.608 1139.92 668.856C1138.2 670.008 1136.52 671.304 1134.88 672.744C1133.35 674.184 1132.1 675.96 1131.14 678.072C1130.18 680.184 1129.7 682.728 1129.7 685.704C1129.7 689.448 1130.52 692.232 1132.15 694.056C1133.78 695.88 1135.94 696.792 1138.63 696.792Z" fill="white"/>
<path d="M492.891 773.096V781H488.731V773.16L479.931 758.6H484.379L490.939 769.512L497.563 758.6H501.659L492.891 773.096ZM509.773 781.224C508.045 781.224 506.487 780.851 505.101 780.104C503.714 779.357 502.626 778.323 501.837 777C501.069 775.656 500.685 774.141 500.685 772.456C500.685 770.771 501.069 769.267 501.837 767.944C502.626 766.621 503.714 765.587 505.101 764.84C506.487 764.093 508.045 763.72 509.773 763.72C511.522 763.72 513.09 764.093 514.477 764.84C515.863 765.587 516.941 766.621 517.709 767.944C518.498 769.267 518.893 770.771 518.893 772.456C518.893 774.141 518.498 775.656 517.709 777C516.941 778.323 515.863 779.357 514.477 780.104C513.09 780.851 511.522 781.224 509.773 781.224ZM509.773 777.8C511.245 777.8 512.461 777.309 513.421 776.328C514.381 775.347 514.861 774.056 514.861 772.456C514.861 770.856 514.381 769.565 513.421 768.584C512.461 767.603 511.245 767.112 509.773 767.112C508.301 767.112 507.085 767.603 506.125 768.584C505.186 769.565 504.717 770.856 504.717 772.456C504.717 774.056 505.186 775.347 506.125 776.328C507.085 777.309 508.301 777.8 509.773 777.8ZM539.262 763.912V781H535.454V778.824C534.814 779.592 534.014 780.189 533.054 780.616C532.094 781.021 531.059 781.224 529.95 781.224C527.667 781.224 525.864 780.595 524.542 779.336C523.24 778.056 522.59 776.168 522.59 773.672V763.912H526.59V773.128C526.59 774.664 526.931 775.816 527.614 776.584C528.318 777.331 529.31 777.704 530.59 777.704C532.019 777.704 533.15 777.267 533.982 776.392C534.835 775.496 535.262 774.216 535.262 772.552V763.912H539.262ZM548.307 766.408C549.459 764.616 551.486 763.72 554.387 763.72V767.528C554.046 767.464 553.736 767.432 553.459 767.432C551.902 767.432 550.686 767.891 549.811 768.808C548.936 769.704 548.499 771.005 548.499 772.712V781H544.499V763.912H548.307V766.408ZM576.252 763.72C577.916 763.72 579.399 764.083 580.7 764.808C582.023 765.533 583.058 766.557 583.804 767.88C584.551 769.203 584.924 770.728 584.924 772.456C584.924 774.184 584.551 775.72 583.804 777.064C583.058 778.387 582.023 779.411 580.7 780.136C579.399 780.861 577.916 781.224 576.252 781.224C573.948 781.224 572.124 780.456 570.78 778.92V787.208H566.78V763.912H570.588V766.152C571.25 765.341 572.06 764.733 573.02 764.328C574.002 763.923 575.079 763.72 576.252 763.72ZM575.804 777.8C577.276 777.8 578.482 777.309 579.42 776.328C580.38 775.347 580.86 774.056 580.86 772.456C580.86 770.856 580.38 769.565 579.42 768.584C578.482 767.603 577.276 767.112 575.804 767.112C574.844 767.112 573.98 767.336 573.212 767.784C572.444 768.211 571.836 768.829 571.388 769.64C570.94 770.451 570.716 771.389 570.716 772.456C570.716 773.523 570.94 774.461 571.388 775.272C571.836 776.083 572.444 776.712 573.212 777.16C573.98 777.587 574.844 777.8 575.804 777.8ZM604.782 772.552C604.782 772.829 604.76 773.224 604.718 773.736H591.31C591.544 774.995 592.152 775.997 593.134 776.744C594.136 777.469 595.374 777.832 596.846 777.832C598.723 777.832 600.27 777.213 601.486 775.976L603.63 778.44C602.862 779.357 601.891 780.051 600.718 780.52C599.544 780.989 598.222 781.224 596.75 781.224C594.872 781.224 593.219 780.851 591.79 780.104C590.36 779.357 589.251 778.323 588.462 777C587.694 775.656 587.31 774.141 587.31 772.456C587.31 770.792 587.683 769.299 588.43 767.976C589.198 766.632 590.254 765.587 591.598 764.84C592.942 764.093 594.456 763.72 596.142 763.72C597.806 763.72 599.288 764.093 600.59 764.84C601.912 765.565 602.936 766.6 603.662 767.944C604.408 769.267 604.782 770.803 604.782 772.552ZM596.142 766.92C594.862 766.92 593.774 767.304 592.878 768.072C592.003 768.819 591.47 769.821 591.278 771.08H600.974C600.803 769.843 600.28 768.84 599.406 768.072C598.531 767.304 597.443 766.92 596.142 766.92ZM612.432 766.408C613.584 764.616 615.611 763.72 618.512 763.72V767.528C618.171 767.464 617.861 767.432 617.584 767.432C616.027 767.432 614.811 767.891 613.936 768.808C613.061 769.704 612.624 771.005 612.624 772.712V781H608.624V763.912H612.432V766.408ZM627.248 781.224C625.861 781.224 624.506 781.043 623.184 780.68C621.861 780.317 620.805 779.859 620.016 779.304L621.552 776.264C622.32 776.776 623.237 777.192 624.304 777.512C625.392 777.811 626.458 777.96 627.504 777.96C629.893 777.96 631.088 777.331 631.088 776.072C631.088 775.475 630.778 775.059 630.16 774.824C629.562 774.589 628.592 774.365 627.248 774.152C625.84 773.939 624.688 773.693 623.792 773.416C622.917 773.139 622.149 772.659 621.488 771.976C620.848 771.272 620.528 770.301 620.528 769.064C620.528 767.443 621.2 766.152 622.544 765.192C623.909 764.211 625.744 763.72 628.048 763.72C629.221 763.72 630.394 763.859 631.568 764.136C632.741 764.392 633.701 764.744 634.448 765.192L632.912 768.232C631.461 767.379 629.829 766.952 628.016 766.952C626.842 766.952 625.946 767.133 625.328 767.496C624.73 767.837 624.432 768.296 624.432 768.872C624.432 769.512 624.752 769.971 625.392 770.248C626.053 770.504 627.066 770.749 628.432 770.984C629.797 771.197 630.917 771.443 631.792 771.72C632.666 771.997 633.413 772.467 634.032 773.128C634.672 773.789 634.992 774.728 634.992 775.944C634.992 777.544 634.298 778.824 632.912 779.784C631.525 780.744 629.637 781.224 627.248 781.224ZM646.117 781.224C644.389 781.224 642.831 780.851 641.445 780.104C640.058 779.357 638.97 778.323 638.181 777C637.413 775.656 637.029 774.141 637.029 772.456C637.029 770.771 637.413 769.267 638.181 767.944C638.97 766.621 640.058 765.587 641.445 764.84C642.831 764.093 644.389 763.72 646.117 763.72C647.866 763.72 649.434 764.093 650.821 764.84C652.207 765.587 653.285 766.621 654.053 767.944C654.842 769.267 655.237 770.771 655.237 772.456C655.237 774.141 654.842 775.656 654.053 777C653.285 778.323 652.207 779.357 650.821 780.104C649.434 780.851 647.866 781.224 646.117 781.224ZM646.117 777.8C647.589 777.8 648.805 777.309 649.765 776.328C650.725 775.347 651.205 774.056 651.205 772.456C651.205 770.856 650.725 769.565 649.765 768.584C648.805 767.603 647.589 767.112 646.117 767.112C644.645 767.112 643.429 767.603 642.469 768.584C641.53 769.565 641.061 770.856 641.061 772.456C641.061 774.056 641.53 775.347 642.469 776.328C643.429 777.309 644.645 777.8 646.117 777.8ZM668.758 763.72C670.912 763.72 672.64 764.349 673.942 765.608C675.243 766.867 675.894 768.733 675.894 771.208V781H671.894V771.72C671.894 770.227 671.542 769.107 670.838 768.36C670.134 767.592 669.131 767.208 667.83 767.208C666.358 767.208 665.195 767.656 664.342 768.552C663.488 769.427 663.062 770.696 663.062 772.36V781H659.062V763.912H662.87V766.12C663.531 765.331 664.363 764.733 665.366 764.328C666.368 763.923 667.499 763.72 668.758 763.72ZM687.496 763.72C690.013 763.72 691.933 764.328 693.256 765.544C694.6 766.739 695.272 768.552 695.272 770.984V781H691.496V778.92C691.005 779.667 690.301 780.243 689.384 780.648C688.488 781.032 687.4 781.224 686.12 781.224C684.84 781.224 683.72 781.011 682.76 780.584C681.8 780.136 681.053 779.528 680.52 778.76C680.008 777.971 679.752 777.085 679.752 776.104C679.752 774.568 680.317 773.341 681.448 772.424C682.6 771.485 684.402 771.016 686.856 771.016H691.272V770.76C691.272 769.565 690.909 768.648 690.184 768.008C689.48 767.368 688.424 767.048 687.016 767.048C686.056 767.048 685.106 767.197 684.168 767.496C683.25 767.795 682.472 768.211 681.832 768.744L680.264 765.832C681.16 765.149 682.237 764.627 683.496 764.264C684.754 763.901 686.088 763.72 687.496 763.72ZM686.952 778.312C687.954 778.312 688.84 778.088 689.608 777.64C690.397 777.171 690.952 776.509 691.272 775.656V773.672H687.144C684.84 773.672 683.688 774.429 683.688 775.944C683.688 776.669 683.976 777.245 684.552 777.672C685.128 778.099 685.928 778.312 686.952 778.312ZM700.405 757.256H704.405V781H700.405V757.256ZM745.155 763.912L738.851 781H735.011L730.595 769.224L726.115 781H722.275L716.003 763.912H719.779L724.291 776.52L728.995 763.912H732.355L736.963 776.584L741.603 763.912H745.155ZM763.501 772.552C763.501 772.829 763.479 773.224 763.437 773.736H750.029C750.263 774.995 750.871 775.997 751.853 776.744C752.855 777.469 754.093 777.832 755.565 777.832C757.442 777.832 758.989 777.213 760.205 775.976L762.349 778.44C761.581 779.357 760.61 780.051 759.437 780.52C758.263 780.989 756.941 781.224 755.469 781.224C753.591 781.224 751.938 780.851 750.509 780.104C749.079 779.357 747.97 778.323 747.181 777C746.413 775.656 746.029 774.141 746.029 772.456C746.029 770.792 746.402 769.299 747.149 767.976C747.917 766.632 748.973 765.587 750.317 764.84C751.661 764.093 753.175 763.72 754.861 763.72C756.525 763.72 758.007 764.093 759.309 764.84C760.631 765.565 761.655 766.6 762.381 767.944C763.127 769.267 763.501 770.803 763.501 772.552ZM754.861 766.92C753.581 766.92 752.493 767.304 751.597 768.072C750.722 768.819 750.189 769.821 749.997 771.08H759.693C759.522 769.843 758.999 768.84 758.125 768.072C757.25 767.304 756.162 766.92 754.861 766.92ZM767.343 757.256H771.343V781H767.343V757.256ZM776.593 757.256H780.593V781H776.593V757.256ZM804.159 763.72C805.823 763.72 807.305 764.083 808.607 764.808C809.929 765.533 810.964 766.557 811.711 767.88C812.457 769.203 812.831 770.728 812.831 772.456C812.831 774.184 812.457 775.72 811.711 777.064C810.964 778.387 809.929 779.411 808.607 780.136C807.305 780.861 805.823 781.224 804.159 781.224C802.985 781.224 801.908 781.021 800.927 780.616C799.967 780.211 799.156 779.603 798.495 778.792V781H794.687V757.256H798.687V765.992C799.369 765.245 800.169 764.68 801.087 764.296C802.025 763.912 803.049 763.72 804.159 763.72ZM803.711 777.8C805.183 777.8 806.388 777.309 807.327 776.328C808.287 775.347 808.767 774.056 808.767 772.456C808.767 770.856 808.287 769.565 807.327 768.584C806.388 767.603 805.183 767.112 803.711 767.112C802.751 767.112 801.887 767.336 801.119 767.784C800.351 768.211 799.743 768.829 799.295 769.64C798.847 770.451 798.623 771.389 798.623 772.456C798.623 773.523 798.847 774.461 799.295 775.272C799.743 776.083 800.351 776.712 801.119 777.16C801.887 777.587 802.751 777.8 803.711 777.8ZM832.688 772.552C832.688 772.829 832.667 773.224 832.624 773.736H819.216C819.451 774.995 820.059 775.997 821.04 776.744C822.043 777.469 823.28 777.832 824.752 777.832C826.629 777.832 828.176 777.213 829.392 775.976L831.536 778.44C830.768 779.357 829.797 780.051 828.624 780.52C827.451 780.989 826.128 781.224 824.656 781.224C822.779 781.224 821.125 780.851 819.696 780.104C818.267 779.357 817.157 778.323 816.368 777C815.6 775.656 815.216 774.141 815.216 772.456C815.216 770.792 815.589 769.299 816.336 767.976C817.104 766.632 818.16 765.587 819.504 764.84C820.848 764.093 822.363 763.72 824.048 763.72C825.712 763.72 827.195 764.093 828.496 764.84C829.819 765.565 830.843 766.6 831.568 767.944C832.315 769.267 832.688 770.803 832.688 772.552ZM824.048 766.92C822.768 766.92 821.68 767.304 820.784 768.072C819.909 768.819 819.376 769.821 819.184 771.08H828.88C828.709 769.843 828.187 768.84 827.312 768.072C826.437 767.304 825.349 766.92 824.048 766.92ZM836.53 763.912H840.53V781H836.53V763.912ZM838.546 761.096C837.821 761.096 837.213 760.872 836.722 760.424C836.232 759.955 835.986 759.379 835.986 758.696C835.986 758.013 836.232 757.448 836.722 757C837.213 756.531 837.821 756.296 838.546 756.296C839.272 756.296 839.88 756.52 840.37 756.968C840.861 757.395 841.106 757.939 841.106 758.6C841.106 759.304 840.861 759.901 840.37 760.392C839.901 760.861 839.293 761.096 838.546 761.096ZM855.476 763.72C857.631 763.72 859.359 764.349 860.66 765.608C861.962 766.867 862.612 768.733 862.612 771.208V781H858.612V771.72C858.612 770.227 858.26 769.107 857.556 768.36C856.852 767.592 855.85 767.208 854.548 767.208C853.076 767.208 851.914 767.656 851.06 768.552C850.207 769.427 849.78 770.696 849.78 772.36V781H845.78V763.912H849.588V766.12C850.25 765.331 851.082 764.733 852.084 764.328C853.087 763.923 854.218 763.72 855.476 763.72ZM884.803 763.912V778.408C884.803 784.424 881.731 787.432 875.587 787.432C873.944 787.432 872.387 787.219 870.915 786.792C869.443 786.387 868.227 785.789 867.267 785L869.059 781.992C869.805 782.611 870.744 783.101 871.875 783.464C873.027 783.848 874.189 784.04 875.363 784.04C877.24 784.04 878.616 783.613 879.491 782.76C880.365 781.907 880.803 780.605 880.803 778.856V777.96C880.12 778.707 879.288 779.272 878.307 779.656C877.325 780.04 876.248 780.232 875.075 780.232C873.453 780.232 871.981 779.891 870.659 779.208C869.357 778.504 868.323 777.523 867.555 776.264C866.808 775.005 866.435 773.565 866.435 771.944C866.435 770.323 866.808 768.893 867.555 767.656C868.323 766.397 869.357 765.427 870.659 764.744C871.981 764.061 873.453 763.72 875.075 763.72C876.312 763.72 877.432 763.923 878.435 764.328C879.459 764.733 880.312 765.352 880.995 766.184V763.912H884.803ZM875.683 776.84C877.197 776.84 878.435 776.392 879.395 775.496C880.376 774.579 880.867 773.395 880.867 771.944C880.867 770.515 880.376 769.352 879.395 768.456C878.435 767.56 877.197 767.112 875.683 767.112C874.147 767.112 872.888 767.56 871.907 768.456C870.947 769.352 870.467 770.515 870.467 771.944C870.467 773.395 870.947 774.579 871.907 775.496C872.888 776.392 874.147 776.84 875.683 776.84ZM906.745 781.224C904.975 781.224 903.385 780.851 901.977 780.104C900.569 779.357 899.471 778.323 898.681 777C897.892 775.656 897.497 774.141 897.497 772.456C897.497 770.771 897.892 769.267 898.681 767.944C899.471 766.621 900.559 765.587 901.945 764.84C903.353 764.093 904.953 763.72 906.745 763.72C908.431 763.72 909.903 764.061 911.161 764.744C912.441 765.427 913.401 766.408 914.041 767.688L910.969 769.48C910.479 768.691 909.86 768.104 909.113 767.72C908.388 767.315 907.588 767.112 906.713 767.112C905.22 767.112 903.983 767.603 903.001 768.584C902.02 769.544 901.529 770.835 901.529 772.456C901.529 774.077 902.009 775.379 902.969 776.36C903.951 777.32 905.199 777.8 906.713 777.8C907.588 777.8 908.388 777.608 909.113 777.224C909.86 776.819 910.479 776.221 910.969 775.432L914.041 777.224C913.38 778.504 912.409 779.496 911.129 780.2C909.871 780.883 908.409 781.224 906.745 781.224ZM924.929 781.224C923.201 781.224 921.644 780.851 920.257 780.104C918.87 779.357 917.782 778.323 916.993 777C916.225 775.656 915.841 774.141 915.841 772.456C915.841 770.771 916.225 769.267 916.993 767.944C917.782 766.621 918.87 765.587 920.257 764.84C921.644 764.093 923.201 763.72 924.929 763.72C926.678 763.72 928.246 764.093 929.633 764.84C931.02 765.587 932.097 766.621 932.865 767.944C933.654 769.267 934.049 770.771 934.049 772.456C934.049 774.141 933.654 775.656 932.865 777C932.097 778.323 931.02 779.357 929.633 780.104C928.246 780.851 926.678 781.224 924.929 781.224ZM924.929 777.8C926.401 777.8 927.617 777.309 928.577 776.328C929.537 775.347 930.017 774.056 930.017 772.456C930.017 770.856 929.537 769.565 928.577 768.584C927.617 767.603 926.401 767.112 924.929 767.112C923.457 767.112 922.241 767.603 921.281 768.584C920.342 769.565 919.873 770.856 919.873 772.456C919.873 774.056 920.342 775.347 921.281 776.328C922.241 777.309 923.457 777.8 924.929 777.8ZM959.442 763.72C961.597 763.72 963.303 764.349 964.562 765.608C965.821 766.845 966.45 768.712 966.45 771.208V781H962.45V771.72C962.45 770.227 962.119 769.107 961.458 768.36C960.797 767.592 959.847 767.208 958.61 767.208C957.266 767.208 956.189 767.656 955.378 768.552C954.567 769.427 954.162 770.685 954.162 772.328V781H950.162V771.72C950.162 770.227 949.831 769.107 949.17 768.36C948.509 767.592 947.559 767.208 946.322 767.208C944.957 767.208 943.869 767.645 943.058 768.52C942.269 769.395 941.874 770.664 941.874 772.328V781H937.874V763.912H941.682V766.088C942.322 765.32 943.122 764.733 944.082 764.328C945.042 763.923 946.109 763.72 947.282 763.72C948.562 763.72 949.693 763.965 950.674 764.456C951.677 764.925 952.466 765.629 953.042 766.568C953.746 765.672 954.653 764.979 955.762 764.488C956.871 763.976 958.098 763.72 959.442 763.72ZM981.034 763.72C982.698 763.72 984.18 764.083 985.482 764.808C986.804 765.533 987.839 766.557 988.586 767.88C989.332 769.203 989.706 770.728 989.706 772.456C989.706 774.184 989.332 775.72 988.586 777.064C987.839 778.387 986.804 779.411 985.482 780.136C984.18 780.861 982.698 781.224 981.034 781.224C978.73 781.224 976.906 780.456 975.562 778.92V787.208H971.562V763.912H975.37V766.152C976.031 765.341 976.842 764.733 977.802 764.328C978.783 763.923 979.86 763.72 981.034 763.72ZM980.586 777.8C982.058 777.8 983.263 777.309 984.202 776.328C985.162 775.347 985.642 774.056 985.642 772.456C985.642 770.856 985.162 769.565 984.202 768.584C983.263 767.603 982.058 767.112 980.586 767.112C979.626 767.112 978.762 767.336 977.994 767.784C977.226 768.211 976.618 768.829 976.17 769.64C975.722 770.451 975.498 771.389 975.498 772.456C975.498 773.523 975.722 774.461 976.17 775.272C976.618 776.083 977.226 776.712 977.994 777.16C978.762 777.587 979.626 777.8 980.586 777.8ZM999.808 763.72C1002.33 763.72 1004.25 764.328 1005.57 765.544C1006.91 766.739 1007.58 768.552 1007.58 770.984V781H1003.81V778.92C1003.32 779.667 1002.61 780.243 1001.7 780.648C1000.8 781.032 999.712 781.224 998.432 781.224C997.152 781.224 996.032 781.011 995.072 780.584C994.112 780.136 993.366 779.528 992.832 778.76C992.32 777.971 992.064 777.085 992.064 776.104C992.064 774.568 992.63 773.341 993.76 772.424C994.912 771.485 996.715 771.016 999.168 771.016H1003.58V770.76C1003.58 769.565 1003.22 768.648 1002.5 768.008C1001.79 767.368 1000.74 767.048 999.328 767.048C998.368 767.048 997.419 767.197 996.48 767.496C995.563 767.795 994.784 768.211 994.144 768.744L992.576 765.832C993.472 765.149 994.55 764.627 995.808 764.264C997.067 763.901 998.4 763.72 999.808 763.72ZM999.264 778.312C1000.27 778.312 1001.15 778.088 1001.92 777.64C1002.71 777.171 1003.26 776.509 1003.58 775.656V773.672H999.456C997.152 773.672 996 774.429 996 775.944C996 776.669 996.288 777.245 996.864 777.672C997.44 778.099 998.24 778.312 999.264 778.312ZM1022.41 763.72C1024.57 763.72 1026.3 764.349 1027.6 765.608C1028.9 766.867 1029.55 768.733 1029.55 771.208V781H1025.55V771.72C1025.55 770.227 1025.2 769.107 1024.49 768.36C1023.79 767.592 1022.79 767.208 1021.49 767.208C1020.01 767.208 1018.85 767.656 1018 768.552C1017.14 769.427 1016.72 770.696 1016.72 772.36V781H1012.72V763.912H1016.53V766.12C1017.19 765.331 1018.02 764.733 1019.02 764.328C1020.02 763.923 1021.16 763.72 1022.41 763.72ZM1034.62 763.912H1038.62V781H1034.62V763.912ZM1036.64 761.096C1035.91 761.096 1035.31 760.872 1034.82 760.424C1034.33 759.955 1034.08 759.379 1034.08 758.696C1034.08 758.013 1034.33 757.448 1034.82 757C1035.31 756.531 1035.91 756.296 1036.64 756.296C1037.37 756.296 1037.97 756.52 1038.46 756.968C1038.95 757.395 1039.2 757.939 1039.2 758.6C1039.2 759.304 1038.95 759.901 1038.46 760.392C1037.99 760.861 1037.39 761.096 1036.64 761.096ZM1051.55 781.224C1049.83 781.224 1048.27 780.851 1046.88 780.104C1045.5 779.357 1044.41 778.323 1043.62 777C1042.85 775.656 1042.47 774.141 1042.47 772.456C1042.47 770.771 1042.85 769.267 1043.62 767.944C1044.41 766.621 1045.5 765.587 1046.88 764.84C1048.27 764.093 1049.83 763.72 1051.55 763.72C1053.3 763.72 1054.87 764.093 1056.26 764.84C1057.64 765.587 1058.72 766.621 1059.49 767.944C1060.28 769.267 1060.67 770.771 1060.67 772.456C1060.67 774.141 1060.28 775.656 1059.49 777C1058.72 778.323 1057.64 779.357 1056.26 780.104C1054.87 780.851 1053.3 781.224 1051.55 781.224ZM1051.55 777.8C1053.03 777.8 1054.24 777.309 1055.2 776.328C1056.16 775.347 1056.64 774.056 1056.64 772.456C1056.64 770.856 1056.16 769.565 1055.2 768.584C1054.24 767.603 1053.03 767.112 1051.55 767.112C1050.08 767.112 1048.87 767.603 1047.91 768.584C1046.97 769.565 1046.5 770.856 1046.5 772.456C1046.5 774.056 1046.97 775.347 1047.91 776.328C1048.87 777.309 1050.08 777.8 1051.55 777.8ZM1074.2 763.72C1076.35 763.72 1078.08 764.349 1079.38 765.608C1080.68 766.867 1081.33 768.733 1081.33 771.208V781H1077.33V771.72C1077.33 770.227 1076.98 769.107 1076.28 768.36C1075.57 767.592 1074.57 767.208 1073.27 767.208C1071.8 767.208 1070.63 767.656 1069.78 768.552C1068.93 769.427 1068.5 770.696 1068.5 772.36V781H1064.5V763.912H1068.31V766.12C1068.97 765.331 1069.8 764.733 1070.8 764.328C1071.81 763.923 1072.94 763.72 1074.2 763.72Z" fill="#C1C1C1"/>
</g>
<defs>
<clipPath id="clip0_372_7506">
<rect width="1512" height="982" fill="white"/>
</clipPath>
</defs>
</svg>
