<svg width="83" height="83" viewBox="0 0 83 83" fill="none" xmlns="http://www.w3.org/2000/svg">
<path d="M0 0H83V83H0V0Z" fill="#F7DF1E"/>
<path d="M21.8236 69.3608L28.175 65.5168C29.4006 67.6894 30.5152 69.5277 33.1891 69.5277C35.752 69.5277 37.3682 68.5253 37.3682 64.6256V38.1051H45.168V64.7358C45.168 72.8144 40.4324 76.4916 33.5233 76.4916C27.2837 76.4916 23.6619 73.2602 21.8232 69.3601" fill="black"/>
<path d="M49.4046 68.5249L55.7554 64.8479C57.4274 67.5782 59.6003 69.5838 63.4443 69.5838C66.6764 69.5838 68.7371 67.9679 68.7371 65.7392C68.7371 63.065 66.62 62.1177 63.0542 60.5582L61.1047 59.7217C55.4772 57.3267 51.7445 54.3179 51.7445 47.9665C51.7445 42.1163 56.2015 37.6589 63.1661 37.6589C68.1247 37.6589 71.6905 39.3864 74.2531 43.8992L68.1798 47.7995C66.8424 45.4039 65.3944 44.4568 63.1658 44.4568C60.8813 44.4568 59.4327 45.9054 59.4327 47.7995C59.4327 50.1394 60.8813 51.0871 64.224 52.5357L66.1739 53.3712C72.8041 56.213 76.5369 59.1099 76.5369 65.628C76.5369 72.6486 71.0213 76.4926 63.6112 76.4926C56.3685 76.4926 51.6884 73.0383 49.4043 68.5252" fill="black"/>
</svg>
