<svg width="84" height="115" viewBox="0 0 84 115" fill="none" xmlns="http://www.w3.org/2000/svg">
<g clip-path="url(#clip0_1_220)">
<path d="M42.199 113.668L8.47211 102.321L0.956055 0.15918H83.5429L76.0191 102.305L42.199 113.668Z" fill="#264DE4"/>
<path d="M69.5783 95.8006L76.0076 8.51196H42.25V104.982L69.5783 95.8006Z" fill="#2965F1"/>
<path d="M18.1865 46.4026L19.113 58.9323H42.2497V46.4026H18.1865Z" fill="#EBEBEB"/>
<path d="M16.3242 21.0422L17.264 33.572H42.2495V21.0422H16.3242Z" fill="#EBEBEB"/>
<path d="M42.2499 78.9436L42.2046 78.9581L30.6902 75.1902L29.954 65.1973H19.5752L21.0236 84.8709L42.2023 91.9955L42.2499 91.9798V78.9436Z" fill="#EBEBEB"/>
<path d="M66.247 46.4026L68.1133 21.0422H42.2142V33.572H56.7827L55.8419 46.4026H42.2142V58.9323H54.9455L53.7451 75.1825L42.2139 78.9543V91.9897L63.4095 84.871L63.5649 82.754L65.9948 49.7672L66.247 46.4026Z" fill="white"/>
</g>
<defs>
<clipPath id="clip0_1_220">
<rect width="82.875" height="114.167" fill="white" transform="translate(0.8125 0.0102539)"/>
</clipPath>
</defs>
</svg>
