<svg width="91" height="112" viewBox="0 0 91 112" fill="none" xmlns="http://www.w3.org/2000/svg">
<g clip-path="url(#clip0_1_217)">
<path d="M0.5 96.8767C0.5 104.73 5.71378 111.096 12.145 111.096H79.1671C85.5994 111.096 90.8125 104.729 90.8125 96.8767V15.0402C90.8125 7.18616 85.5987 0.820801 79.1675 0.820801H12.1454C5.71308 0.820801 0.5 7.18702 0.5 15.0398V96.8763V96.8767Z" fill="#563D7C"/>
<path d="M37.9507 49.5993V33.9829H49.2083C50.2808 33.9829 51.3144 34.0919 52.31 34.3103C53.3056 34.5283 54.1865 34.9177 54.9524 35.479C55.7179 36.0402 56.3307 36.8195 56.7904 37.8167C57.2497 38.8144 57.4797 40.0924 57.4797 41.6505C57.4797 44.456 56.7904 46.4823 55.4117 47.729C54.0334 48.976 52.2719 49.5993 50.1273 49.5993H37.9507ZM25.9268 22.5742V89.3422H52.425C54.8758 89.3422 57.2627 88.9683 59.5858 88.2201C61.9089 87.4719 63.9765 86.3187 65.7891 84.7602C67.6014 83.2017 69.0439 81.1909 70.116 78.7287C71.1885 76.266 71.7244 73.3515 71.7244 69.9851C71.7244 65.808 70.8946 62.2391 69.2355 59.2781C67.576 56.3166 65.0614 54.2438 61.6916 53.0592C64.1424 51.6256 65.9934 49.7863 67.2444 47.542C68.495 45.2977 69.1205 42.4926 69.1205 39.1258C69.1205 36.0088 68.6993 33.3906 67.8568 31.2709C67.0144 29.1515 65.8273 27.4526 64.2955 26.1745C62.764 24.8965 60.926 23.9768 58.7815 23.4159C56.6372 22.8546 54.263 22.5742 51.6591 22.5742H25.9268ZM37.9507 77.9335V59.605H51.0463C53.6502 59.605 55.7436 60.3373 57.3266 61.8028C58.9092 63.2678 59.7008 65.7145 59.7008 69.1434C59.7008 70.8893 59.4581 72.3228 58.973 73.445C58.4879 74.5671 57.8371 75.4558 57.02 76.1101C56.2033 76.7648 55.2586 77.2322 54.1865 77.5131C53.114 77.7931 51.9911 77.9335 50.8167 77.9335H37.9507Z" fill="white"/>
</g>
<defs>
<clipPath id="clip0_1_217">
<rect width="90.3125" height="110.275" fill="white" transform="translate(0.5 0.820801)"/>
</clipPath>
</defs>
</svg>
