<svg width="90" height="115" viewBox="0 0 90 115" fill="none" xmlns="http://www.w3.org/2000/svg">
<g clip-path="url(#clip0_1_230)">
<path d="M88.9717 -0.477295L80.9656 102.376L44.9775 113.817L9.08867 102.391L1.09082 -0.477295H88.9717Z" fill="#E44D26"/>
<path d="M45.0312 105.071L74.1114 95.8263L80.9528 7.93359H45.0312V105.071Z" fill="#F16529"/>
<path d="M29.4678 33.167H45.0315V20.5505H17.4443L17.7075 23.9353L20.4117 58.7028H45.0315V46.0864H30.4734L29.4678 33.167Z" fill="#EBEBEB"/>
<path d="M31.9474 65.0112H20.9033L22.4445 84.821L44.9809 91.9949L45.0316 91.9791V78.8527L44.9833 78.8673L32.7308 75.0733L31.9474 65.0112Z" fill="#EBEBEB"/>
<path d="M44.9935 58.7026H58.541L57.2636 75.0652L44.9932 78.8631V91.9888L67.5475 84.8208L67.7128 82.6891L70.2985 49.4741L70.5669 46.0862H44.9935V58.7026Z" fill="white"/>
<path d="M44.9932 33.1362V33.167H71.5676L71.7881 30.3314L72.2896 23.9352L72.5525 20.5505H44.9932V33.1362Z" fill="white"/>
</g>
<defs>
<clipPath id="clip0_1_230">
<rect width="88.1875" height="114.167" fill="white" transform="translate(0.9375 0.0102539)"/>
</clipPath>
</defs>
</svg>
