<svg width="89" height="109" viewBox="0 0 89 109" fill="none" xmlns="http://www.w3.org/2000/svg">
<g clip-path="url(#clip0_1_241)">
<path d="M0.375 0.820801H88.5625V108.501H0.375V0.820801Z" fill="#F7DF1E"/>
<path d="M23.5628 90.8062L30.3113 85.8192C31.6134 88.6379 32.7977 91.0228 35.6387 91.0228C38.3618 91.0228 40.0791 89.7222 40.0791 84.6629V50.2566H48.3663V84.806C48.3663 95.2867 43.3348 100.057 35.9938 100.057C29.3643 100.057 25.5161 95.865 23.5625 90.8053" fill="black"/>
<path d="M52.8675 89.7217L59.6153 84.9514C61.3917 88.4935 63.7005 91.0955 67.7847 91.0955C71.2188 91.0955 73.4083 88.9991 73.4083 86.1077C73.4083 82.6384 71.1589 81.4093 67.3702 79.3861L65.2989 78.3009C59.3197 75.1937 55.3537 71.2903 55.3537 63.0503C55.3537 55.4605 60.0893 49.6777 67.4891 49.6777C72.7576 49.6777 76.5462 51.9188 79.269 57.7735L72.8162 62.8336C71.3952 59.7256 69.8567 58.497 67.4887 58.497C65.0615 58.497 63.5224 60.3763 63.5224 62.8336C63.5224 65.8693 65.0615 67.0988 68.6131 68.9781L70.6849 70.0621C77.7295 73.7489 81.6955 77.5072 81.6955 85.9634C81.6955 95.0717 75.8352 100.059 67.9621 100.059C60.2667 100.059 55.2941 95.5773 52.8672 89.7221" fill="black"/>
</g>
<defs>
<clipPath id="clip0_1_241">
<rect width="88.1875" height="107.68" fill="white" transform="translate(0.375 0.820801)"/>
</clipPath>
</defs>
</svg>
