<svg width="93" height="93" viewBox="0 0 93 93" fill="none" xmlns="http://www.w3.org/2000/svg">
<path d="M9.2041 10.2213H83.7959V82.7788H9.2041V10.2213Z" fill="#0C0824"/>
<path d="M9.20409 10.2213H83.7959V82.7787H9.20409V10.2213ZM5.8125 86.1703H87.1875V6.82971H5.8125V86.1703ZM60.6738 39.3797C57.9942 39.3797 57.0787 40.7369 57.0787 41.8558C57.0787 43.0765 57.6891 43.9251 61.2841 45.788C66.6083 48.3658 68.2591 50.8391 68.2591 54.469C68.2591 59.8949 64.1235 62.8099 58.529 62.8099C56.128 62.8989 53.7416 62.4 51.5772 61.3568C51.3389 61.2551 51.3069 61.0865 51.3069 60.8133V55.8233C51.3069 55.4832 51.4755 55.3815 51.7138 55.553C53.7464 56.86 56.1124 57.5542 58.529 57.5525C61.2085 57.5525 62.3274 56.4336 62.3274 54.9078C62.3274 53.6872 61.5486 52.6031 58.1221 50.8391C53.3064 48.5344 51.3069 46.1891 51.3069 42.2947C51.3069 37.9208 54.7305 34.2938 60.6651 34.2938C62.7308 34.2051 64.7936 34.5281 66.7333 35.2441C66.845 35.3166 66.9354 35.4176 66.9952 35.5366C67.0549 35.6556 67.0819 35.7884 67.0733 35.9213V40.5713C67.0733 40.8416 66.9048 41.013 66.5647 40.9113C64.772 39.8793 62.7333 39.352 60.6651 39.3855L60.6738 39.3797ZM31.5125 43.4136C32.2913 43.4804 32.9017 43.4804 34.2589 43.4804C38.2259 43.4804 41.9546 42.0912 41.9546 36.7001C41.9546 32.3931 39.2751 30.225 34.7675 30.225C33.4103 30.225 32.1228 30.2919 31.5125 30.3267V43.4136ZM25.4762 25.3948C25.4762 25.1565 25.9499 24.988 26.2231 24.988C29.1375 24.8689 32.0541 24.8127 34.9709 24.8194C44.3639 24.8194 48.0258 29.9722 48.0258 36.5519C48.0258 45.1631 41.7861 48.8599 34.1252 48.8599C32.8377 48.8599 32.396 48.7931 31.4805 48.7931V61.8131C31.4805 62.0833 31.3788 62.2199 31.0736 62.2199H25.886C25.6157 62.2199 25.4791 62.1182 25.4791 61.8131V25.4094L25.4762 25.3948Z" fill="#31C5F0"/>
</svg>
