<svg width="95" height="116" viewBox="0 0 95 116" fill="none" xmlns="http://www.w3.org/2000/svg">
<g clip-path="url(#clip0_1_245)">
<path d="M74.7734 54.4579C68.0629 54.4579 62.3374 51.5637 57.597 45.7755C52.8565 39.9873 50.4863 32.9962 50.4863 24.8025C50.4863 19.9915 51.5945 15.4248 53.8108 11.1024C56.0271 6.77999 58.8591 3.19052 62.3066 0.333984C62.0604 1.08571 61.6756 2.25087 61.1523 3.82949C60.629 5.4081 60.2289 6.61085 59.9518 7.43774C59.6748 8.26464 59.3054 9.37343 58.8437 10.7641C58.3819 12.1548 58.0433 13.2824 57.8279 14.1469C57.6124 15.0113 57.3815 15.9698 57.1353 17.0222C56.889 18.0746 56.7043 18.9954 56.5812 19.7848C56.458 20.5741 56.3965 21.307 56.3965 21.9835C56.3965 29.1249 58.3819 35.1199 62.3528 39.9685C66.3237 44.8171 71.2334 47.2414 77.082 47.2414C77.6361 47.2414 78.2364 47.1662 78.8828 47.0158C79.5292 46.8655 80.2834 46.64 81.1453 46.3393C82.0072 46.0386 82.7921 45.7567 83.5001 45.4936C84.2081 45.2305 85.1315 44.8171 86.2705 44.2533C87.4094 43.6895 88.3175 43.2384 88.9947 42.9002C89.6719 42.5619 90.6569 42.0733 91.9498 41.4343C93.2426 40.7953 94.1969 40.3255 94.8125 40.0248C92.4731 44.2345 89.5334 47.6924 85.9934 50.3986C82.4535 53.1048 78.7135 54.4579 74.7734 54.4579ZM68.2168 72.4992C71.9722 72.4992 75.4968 72.2361 78.7904 71.7099C82.0841 71.1837 86.4398 70.244 91.8574 68.8909C88.4714 73.5516 84.3774 77.1223 79.5754 79.6029C74.7734 82.0836 69.6328 83.3239 64.1536 83.3239C57.3815 83.3239 51.1328 81.2943 45.4073 77.235C39.6818 73.1757 35.1569 67.6506 31.8324 60.6596C28.5079 53.6686 26.8457 46.0762 26.8457 37.8824C26.8457 31.1169 27.8615 24.8025 29.8931 18.9391C31.9247 13.0756 34.849 8.07671 38.666 3.94224C37.5579 10.5574 36.7883 15.8758 36.3574 19.8975C35.9264 23.9192 35.7109 28.2228 35.7109 32.8083C35.7109 39.8745 37.1885 46.452 40.1436 52.541C43.0986 58.6299 47.0695 63.4785 52.0562 67.0868C57.0429 70.695 62.4298 72.4992 68.2168 72.4992ZM53.4414 101.365C64.7076 101.365 74.5579 100.162 82.9922 97.757C78.6827 103.62 73.4497 108.093 67.2933 111.175C61.1369 114.257 54.5496 115.798 47.5312 115.798C38.9738 115.798 31.0628 113.224 23.7983 108.074C16.5337 102.925 10.7929 95.9153 6.57571 87.045C2.35857 78.1747 0.25 68.515 0.25 58.0661C0.25 49.4965 1.51206 41.4531 4.03619 33.9359C6.56032 26.4187 10.2234 20.0291 15.0254 14.767C13.0553 25.0656 12.0703 37.0931 12.0703 50.8496C12.0703 57.6903 13.1631 64.2302 15.3486 70.4695C17.5341 76.7088 20.4738 82.0836 24.1677 86.5939C27.8615 91.1043 32.2633 94.6937 37.3732 97.3623C42.483 100.031 47.8391 101.365 53.4414 101.365Z" fill="#699BF7"/>
</g>
<defs>
<clipPath id="clip0_1_245">
<rect width="94.5625" height="115.464" fill="white" transform="translate(0.25 0.333984)"/>
</clipPath>
</defs>
</svg>
